<?xml version="1.0" encoding="utf-8" standalone="no"?>
<!DOCTYPE svg PUBLIC "-//W3C//DTD SVG 1.1//EN"
  "http://www.w3.org/Graphics/SVG/1.1/DTD/svg11.dtd">
<svg xmlns:xlink="http://www.w3.org/1999/xlink" width="432pt" height="288pt" viewBox="0 0 432 288" xmlns="http://www.w3.org/2000/svg" version="1.1">
 <metadata>
  <rdf:RDF xmlns:dc="http://purl.org/dc/elements/1.1/" xmlns:cc="http://creativecommons.org/ns#" xmlns:rdf="http://www.w3.org/1999/02/22-rdf-syntax-ns#">
   <cc:Work>
    <dc:type rdf:resource="http://purl.org/dc/dcmitype/StillImage"/>
    <dc:date>2025-07-09T11:20:46.233762</dc:date>
    <dc:format>image/svg+xml</dc:format>
    <dc:creator>
     <cc:Agent>
      <dc:title>Matplotlib v3.9.2, https://matplotlib.org/</dc:title>
     </cc:Agent>
    </dc:creator>
   </cc:Work>
  </rdf:RDF>
 </metadata>
 <defs>
  <style type="text/css">*{stroke-linejoin: round; stroke-linecap: butt}</style>
 </defs>
 <g id="figure_1">
  <g id="patch_1">
   <path d="M 0 288 
L 432 288 
L 432 0 
L 0 0 
z
" style="fill: #ffffff"/>
  </g>
  <g id="axes_1">
   <g id="patch_2">
    <path d="M 54 256.32 
L 388.8 256.32 
L 388.8 34.56 
L 54 34.56 
z
" style="fill: #ffffff"/>
   </g>
   <g id="matplotlib.axis_1">
    <g id="xtick_1">
     <g id="line2d_1">
      <path d="M 54 256.32 
L 54 34.56 
" clip-path="url(#p5624e4b6fc)" style="fill: none; stroke: #b0b0b0; stroke-width: 0.8; stroke-linecap: square"/>
     </g>
     <g id="line2d_2">
      <defs>
       <path id="m7332cc6176" d="M 0 0 
L 0 3.5 
" style="stroke: #000000; stroke-width: 0.8"/>
      </defs>
      <g>
       <use xlink:href="#m7332cc6176" x="54" y="256.32" style="stroke: #000000; stroke-width: 0.8"/>
      </g>
     </g>
     <g id="text_1">
      <!-- 0 -->
      <g transform="translate(50.81875 270.918437) scale(0.1 -0.1)">
       <defs>
        <path id="DejaVuSans-30" d="M 2034 4250 
Q 1547 4250 1301 3770 
Q 1056 3291 1056 2328 
Q 1056 1369 1301 889 
Q 1547 409 2034 409 
Q 2525 409 2770 889 
Q 3016 1369 3016 2328 
Q 3016 3291 2770 3770 
Q 2525 4250 2034 4250 
z
M 2034 4750 
Q 2819 4750 3233 4129 
Q 3647 3509 3647 2328 
Q 3647 1150 3233 529 
Q 2819 -91 2034 -91 
Q 1250 -91 836 529 
Q 422 1150 422 2328 
Q 422 3509 836 4129 
Q 1250 4750 2034 4750 
z
" transform="scale(0.015625)"/>
       </defs>
       <use xlink:href="#DejaVuSans-30"/>
      </g>
     </g>
    </g>
    <g id="xtick_2">
     <g id="line2d_3">
      <path d="M 123.75 256.32 
L 123.75 34.56 
" clip-path="url(#p5624e4b6fc)" style="fill: none; stroke: #b0b0b0; stroke-width: 0.8; stroke-linecap: square"/>
     </g>
     <g id="line2d_4">
      <g>
       <use xlink:href="#m7332cc6176" x="123.75" y="256.32" style="stroke: #000000; stroke-width: 0.8"/>
      </g>
     </g>
     <g id="text_2">
      <!-- 20 -->
      <g transform="translate(117.3875 270.918437) scale(0.1 -0.1)">
       <defs>
        <path id="DejaVuSans-32" d="M 1228 531 
L 3431 531 
L 3431 0 
L 469 0 
L 469 531 
Q 828 903 1448 1529 
Q 2069 2156 2228 2338 
Q 2531 2678 2651 2914 
Q 2772 3150 2772 3378 
Q 2772 3750 2511 3984 
Q 2250 4219 1831 4219 
Q 1534 4219 1204 4116 
Q 875 4013 500 3803 
L 500 4441 
Q 881 4594 1212 4672 
Q 1544 4750 1819 4750 
Q 2544 4750 2975 4387 
Q 3406 4025 3406 3419 
Q 3406 3131 3298 2873 
Q 3191 2616 2906 2266 
Q 2828 2175 2409 1742 
Q 1991 1309 1228 531 
z
" transform="scale(0.015625)"/>
       </defs>
       <use xlink:href="#DejaVuSans-32"/>
       <use xlink:href="#DejaVuSans-30" x="63.623047"/>
      </g>
     </g>
    </g>
    <g id="xtick_3">
     <g id="line2d_5">
      <path d="M 193.5 256.32 
L 193.5 34.56 
" clip-path="url(#p5624e4b6fc)" style="fill: none; stroke: #b0b0b0; stroke-width: 0.8; stroke-linecap: square"/>
     </g>
     <g id="line2d_6">
      <g>
       <use xlink:href="#m7332cc6176" x="193.5" y="256.32" style="stroke: #000000; stroke-width: 0.8"/>
      </g>
     </g>
     <g id="text_3">
      <!-- 40 -->
      <g transform="translate(187.1375 270.918437) scale(0.1 -0.1)">
       <defs>
        <path id="DejaVuSans-34" d="M 2419 4116 
L 825 1625 
L 2419 1625 
L 2419 4116 
z
M 2253 4666 
L 3047 4666 
L 3047 1625 
L 3713 1625 
L 3713 1100 
L 3047 1100 
L 3047 0 
L 2419 0 
L 2419 1100 
L 313 1100 
L 313 1709 
L 2253 4666 
z
" transform="scale(0.015625)"/>
       </defs>
       <use xlink:href="#DejaVuSans-34"/>
       <use xlink:href="#DejaVuSans-30" x="63.623047"/>
      </g>
     </g>
    </g>
    <g id="xtick_4">
     <g id="line2d_7">
      <path d="M 263.25 256.32 
L 263.25 34.56 
" clip-path="url(#p5624e4b6fc)" style="fill: none; stroke: #b0b0b0; stroke-width: 0.8; stroke-linecap: square"/>
     </g>
     <g id="line2d_8">
      <g>
       <use xlink:href="#m7332cc6176" x="263.25" y="256.32" style="stroke: #000000; stroke-width: 0.8"/>
      </g>
     </g>
     <g id="text_4">
      <!-- 60 -->
      <g transform="translate(256.8875 270.918437) scale(0.1 -0.1)">
       <defs>
        <path id="DejaVuSans-36" d="M 2113 2584 
Q 1688 2584 1439 2293 
Q 1191 2003 1191 1497 
Q 1191 994 1439 701 
Q 1688 409 2113 409 
Q 2538 409 2786 701 
Q 3034 994 3034 1497 
Q 3034 2003 2786 2293 
Q 2538 2584 2113 2584 
z
M 3366 4563 
L 3366 3988 
Q 3128 4100 2886 4159 
Q 2644 4219 2406 4219 
Q 1781 4219 1451 3797 
Q 1122 3375 1075 2522 
Q 1259 2794 1537 2939 
Q 1816 3084 2150 3084 
Q 2853 3084 3261 2657 
Q 3669 2231 3669 1497 
Q 3669 778 3244 343 
Q 2819 -91 2113 -91 
Q 1303 -91 875 529 
Q 447 1150 447 2328 
Q 447 3434 972 4092 
Q 1497 4750 2381 4750 
Q 2619 4750 2861 4703 
Q 3103 4656 3366 4563 
z
" transform="scale(0.015625)"/>
       </defs>
       <use xlink:href="#DejaVuSans-36"/>
       <use xlink:href="#DejaVuSans-30" x="63.623047"/>
      </g>
     </g>
    </g>
    <g id="xtick_5">
     <g id="line2d_9">
      <path d="M 333 256.32 
L 333 34.56 
" clip-path="url(#p5624e4b6fc)" style="fill: none; stroke: #b0b0b0; stroke-width: 0.8; stroke-linecap: square"/>
     </g>
     <g id="line2d_10">
      <g>
       <use xlink:href="#m7332cc6176" x="333" y="256.32" style="stroke: #000000; stroke-width: 0.8"/>
      </g>
     </g>
     <g id="text_5">
      <!-- 80 -->
      <g transform="translate(326.6375 270.918437) scale(0.1 -0.1)">
       <defs>
        <path id="DejaVuSans-38" d="M 2034 2216 
Q 1584 2216 1326 1975 
Q 1069 1734 1069 1313 
Q 1069 891 1326 650 
Q 1584 409 2034 409 
Q 2484 409 2743 651 
Q 3003 894 3003 1313 
Q 3003 1734 2745 1975 
Q 2488 2216 2034 2216 
z
M 1403 2484 
Q 997 2584 770 2862 
Q 544 3141 544 3541 
Q 544 4100 942 4425 
Q 1341 4750 2034 4750 
Q 2731 4750 3128 4425 
Q 3525 4100 3525 3541 
Q 3525 3141 3298 2862 
Q 3072 2584 2669 2484 
Q 3125 2378 3379 2068 
Q 3634 1759 3634 1313 
Q 3634 634 3220 271 
Q 2806 -91 2034 -91 
Q 1263 -91 848 271 
Q 434 634 434 1313 
Q 434 1759 690 2068 
Q 947 2378 1403 2484 
z
M 1172 3481 
Q 1172 3119 1398 2916 
Q 1625 2713 2034 2713 
Q 2441 2713 2670 2916 
Q 2900 3119 2900 3481 
Q 2900 3844 2670 4047 
Q 2441 4250 2034 4250 
Q 1625 4250 1398 4047 
Q 1172 3844 1172 3481 
z
" transform="scale(0.015625)"/>
       </defs>
       <use xlink:href="#DejaVuSans-38"/>
       <use xlink:href="#DejaVuSans-30" x="63.623047"/>
      </g>
     </g>
    </g>
    <g id="text_6">
     <!-- Frequency [kHz] -->
     <g transform="translate(180.8 284.596563) scale(0.1 -0.1)">
      <defs>
       <path id="DejaVuSans-46" d="M 628 4666 
L 3309 4666 
L 3309 4134 
L 1259 4134 
L 1259 2759 
L 3109 2759 
L 3109 2228 
L 1259 2228 
L 1259 0 
L 628 0 
L 628 4666 
z
" transform="scale(0.015625)"/>
       <path id="DejaVuSans-72" d="M 2631 2963 
Q 2534 3019 2420 3045 
Q 2306 3072 2169 3072 
Q 1681 3072 1420 2755 
Q 1159 2438 1159 1844 
L 1159 0 
L 581 0 
L 581 3500 
L 1159 3500 
L 1159 2956 
Q 1341 3275 1631 3429 
Q 1922 3584 2338 3584 
Q 2397 3584 2469 3576 
Q 2541 3569 2628 3553 
L 2631 2963 
z
" transform="scale(0.015625)"/>
       <path id="DejaVuSans-65" d="M 3597 1894 
L 3597 1613 
L 953 1613 
Q 991 1019 1311 708 
Q 1631 397 2203 397 
Q 2534 397 2845 478 
Q 3156 559 3463 722 
L 3463 178 
Q 3153 47 2828 -22 
Q 2503 -91 2169 -91 
Q 1331 -91 842 396 
Q 353 884 353 1716 
Q 353 2575 817 3079 
Q 1281 3584 2069 3584 
Q 2775 3584 3186 3129 
Q 3597 2675 3597 1894 
z
M 3022 2063 
Q 3016 2534 2758 2815 
Q 2500 3097 2075 3097 
Q 1594 3097 1305 2825 
Q 1016 2553 972 2059 
L 3022 2063 
z
" transform="scale(0.015625)"/>
       <path id="DejaVuSans-71" d="M 947 1747 
Q 947 1113 1208 752 
Q 1469 391 1925 391 
Q 2381 391 2643 752 
Q 2906 1113 2906 1747 
Q 2906 2381 2643 2742 
Q 2381 3103 1925 3103 
Q 1469 3103 1208 2742 
Q 947 2381 947 1747 
z
M 2906 525 
Q 2725 213 2448 61 
Q 2172 -91 1784 -91 
Q 1150 -91 751 415 
Q 353 922 353 1747 
Q 353 2572 751 3078 
Q 1150 3584 1784 3584 
Q 2172 3584 2448 3432 
Q 2725 3281 2906 2969 
L 2906 3500 
L 3481 3500 
L 3481 -1331 
L 2906 -1331 
L 2906 525 
z
" transform="scale(0.015625)"/>
       <path id="DejaVuSans-75" d="M 544 1381 
L 544 3500 
L 1119 3500 
L 1119 1403 
Q 1119 906 1312 657 
Q 1506 409 1894 409 
Q 2359 409 2629 706 
Q 2900 1003 2900 1516 
L 2900 3500 
L 3475 3500 
L 3475 0 
L 2900 0 
L 2900 538 
Q 2691 219 2414 64 
Q 2138 -91 1772 -91 
Q 1169 -91 856 284 
Q 544 659 544 1381 
z
M 1991 3584 
L 1991 3584 
z
" transform="scale(0.015625)"/>
       <path id="DejaVuSans-6e" d="M 3513 2113 
L 3513 0 
L 2938 0 
L 2938 2094 
Q 2938 2591 2744 2837 
Q 2550 3084 2163 3084 
Q 1697 3084 1428 2787 
Q 1159 2491 1159 1978 
L 1159 0 
L 581 0 
L 581 3500 
L 1159 3500 
L 1159 2956 
Q 1366 3272 1645 3428 
Q 1925 3584 2291 3584 
Q 2894 3584 3203 3211 
Q 3513 2838 3513 2113 
z
" transform="scale(0.015625)"/>
       <path id="DejaVuSans-63" d="M 3122 3366 
L 3122 2828 
Q 2878 2963 2633 3030 
Q 2388 3097 2138 3097 
Q 1578 3097 1268 2742 
Q 959 2388 959 1747 
Q 959 1106 1268 751 
Q 1578 397 2138 397 
Q 2388 397 2633 464 
Q 2878 531 3122 666 
L 3122 134 
Q 2881 22 2623 -34 
Q 2366 -91 2075 -91 
Q 1284 -91 818 406 
Q 353 903 353 1747 
Q 353 2603 823 3093 
Q 1294 3584 2113 3584 
Q 2378 3584 2631 3529 
Q 2884 3475 3122 3366 
z
" transform="scale(0.015625)"/>
       <path id="DejaVuSans-79" d="M 2059 -325 
Q 1816 -950 1584 -1140 
Q 1353 -1331 966 -1331 
L 506 -1331 
L 506 -850 
L 844 -850 
Q 1081 -850 1212 -737 
Q 1344 -625 1503 -206 
L 1606 56 
L 191 3500 
L 800 3500 
L 1894 763 
L 2988 3500 
L 3597 3500 
L 2059 -325 
z
" transform="scale(0.015625)"/>
       <path id="DejaVuSans-20" transform="scale(0.015625)"/>
       <path id="DejaVuSans-5b" d="M 550 4863 
L 1875 4863 
L 1875 4416 
L 1125 4416 
L 1125 -397 
L 1875 -397 
L 1875 -844 
L 550 -844 
L 550 4863 
z
" transform="scale(0.015625)"/>
       <path id="DejaVuSans-6b" d="M 581 4863 
L 1159 4863 
L 1159 1991 
L 2875 3500 
L 3609 3500 
L 1753 1863 
L 3688 0 
L 2938 0 
L 1159 1709 
L 1159 0 
L 581 0 
L 581 4863 
z
" transform="scale(0.015625)"/>
       <path id="DejaVuSans-48" d="M 628 4666 
L 1259 4666 
L 1259 2753 
L 3553 2753 
L 3553 4666 
L 4184 4666 
L 4184 0 
L 3553 0 
L 3553 2222 
L 1259 2222 
L 1259 0 
L 628 0 
L 628 4666 
z
" transform="scale(0.015625)"/>
       <path id="DejaVuSans-7a" d="M 353 3500 
L 3084 3500 
L 3084 2975 
L 922 459 
L 3084 459 
L 3084 0 
L 275 0 
L 275 525 
L 2438 3041 
L 353 3041 
L 353 3500 
z
" transform="scale(0.015625)"/>
       <path id="DejaVuSans-5d" d="M 1947 4863 
L 1947 -844 
L 622 -844 
L 622 -397 
L 1369 -397 
L 1369 4416 
L 622 4416 
L 622 4863 
L 1947 4863 
z
" transform="scale(0.015625)"/>
      </defs>
      <use xlink:href="#DejaVuSans-46"/>
      <use xlink:href="#DejaVuSans-72" x="50.269531"/>
      <use xlink:href="#DejaVuSans-65" x="89.132812"/>
      <use xlink:href="#DejaVuSans-71" x="150.65625"/>
      <use xlink:href="#DejaVuSans-75" x="214.132812"/>
      <use xlink:href="#DejaVuSans-65" x="277.511719"/>
      <use xlink:href="#DejaVuSans-6e" x="339.035156"/>
      <use xlink:href="#DejaVuSans-63" x="402.414062"/>
      <use xlink:href="#DejaVuSans-79" x="457.394531"/>
      <use xlink:href="#DejaVuSans-20" x="516.574219"/>
      <use xlink:href="#DejaVuSans-5b" x="548.361328"/>
      <use xlink:href="#DejaVuSans-6b" x="587.375"/>
      <use xlink:href="#DejaVuSans-48" x="645.285156"/>
      <use xlink:href="#DejaVuSans-7a" x="720.480469"/>
      <use xlink:href="#DejaVuSans-5d" x="772.970703"/>
     </g>
    </g>
   </g>
   <g id="matplotlib.axis_2">
    <g id="ytick_1">
     <g id="line2d_11">
      <path d="M 54 256.32 
L 388.8 256.32 
" clip-path="url(#p5624e4b6fc)" style="fill: none; stroke: #b0b0b0; stroke-width: 0.8; stroke-linecap: square"/>
     </g>
     <g id="line2d_12">
      <defs>
       <path id="ma35a2b6f9a" d="M 0 0 
L -3.5 0 
" style="stroke: #000000; stroke-width: 0.8"/>
      </defs>
      <g>
       <use xlink:href="#ma35a2b6f9a" x="54" y="256.32" style="stroke: #000000; stroke-width: 0.8"/>
      </g>
     </g>
     <g id="text_7">
      <!-- −20 -->
      <g transform="translate(25.895312 260.119219) scale(0.1 -0.1)">
       <defs>
        <path id="DejaVuSans-2212" d="M 678 2272 
L 4684 2272 
L 4684 1741 
L 678 1741 
L 678 2272 
z
" transform="scale(0.015625)"/>
       </defs>
       <use xlink:href="#DejaVuSans-2212"/>
       <use xlink:href="#DejaVuSans-32" x="83.789062"/>
       <use xlink:href="#DejaVuSans-30" x="147.412109"/>
      </g>
     </g>
    </g>
    <g id="ytick_2">
     <g id="line2d_13">
      <path d="M 54 219.36 
L 388.8 219.36 
" clip-path="url(#p5624e4b6fc)" style="fill: none; stroke: #b0b0b0; stroke-width: 0.8; stroke-linecap: square"/>
     </g>
     <g id="line2d_14">
      <g>
       <use xlink:href="#ma35a2b6f9a" x="54" y="219.36" style="stroke: #000000; stroke-width: 0.8"/>
      </g>
     </g>
     <g id="text_8">
      <!-- −10 -->
      <g transform="translate(25.895312 223.159219) scale(0.1 -0.1)">
       <defs>
        <path id="DejaVuSans-31" d="M 794 531 
L 1825 531 
L 1825 4091 
L 703 3866 
L 703 4441 
L 1819 4666 
L 2450 4666 
L 2450 531 
L 3481 531 
L 3481 0 
L 794 0 
L 794 531 
z
" transform="scale(0.015625)"/>
       </defs>
       <use xlink:href="#DejaVuSans-2212"/>
       <use xlink:href="#DejaVuSans-31" x="83.789062"/>
       <use xlink:href="#DejaVuSans-30" x="147.412109"/>
      </g>
     </g>
    </g>
    <g id="ytick_3">
     <g id="line2d_15">
      <path d="M 54 182.4 
L 388.8 182.4 
" clip-path="url(#p5624e4b6fc)" style="fill: none; stroke: #b0b0b0; stroke-width: 0.8; stroke-linecap: square"/>
     </g>
     <g id="line2d_16">
      <g>
       <use xlink:href="#ma35a2b6f9a" x="54" y="182.4" style="stroke: #000000; stroke-width: 0.8"/>
      </g>
     </g>
     <g id="text_9">
      <!-- 0 -->
      <g transform="translate(40.6375 186.199219) scale(0.1 -0.1)">
       <use xlink:href="#DejaVuSans-30"/>
      </g>
     </g>
    </g>
    <g id="ytick_4">
     <g id="line2d_17">
      <path d="M 54 145.44 
L 388.8 145.44 
" clip-path="url(#p5624e4b6fc)" style="fill: none; stroke: #b0b0b0; stroke-width: 0.8; stroke-linecap: square"/>
     </g>
     <g id="line2d_18">
      <g>
       <use xlink:href="#ma35a2b6f9a" x="54" y="145.44" style="stroke: #000000; stroke-width: 0.8"/>
      </g>
     </g>
     <g id="text_10">
      <!-- 10 -->
      <g transform="translate(34.275 149.239219) scale(0.1 -0.1)">
       <use xlink:href="#DejaVuSans-31"/>
       <use xlink:href="#DejaVuSans-30" x="63.623047"/>
      </g>
     </g>
    </g>
    <g id="ytick_5">
     <g id="line2d_19">
      <path d="M 54 108.48 
L 388.8 108.48 
" clip-path="url(#p5624e4b6fc)" style="fill: none; stroke: #b0b0b0; stroke-width: 0.8; stroke-linecap: square"/>
     </g>
     <g id="line2d_20">
      <g>
       <use xlink:href="#ma35a2b6f9a" x="54" y="108.48" style="stroke: #000000; stroke-width: 0.8"/>
      </g>
     </g>
     <g id="text_11">
      <!-- 20 -->
      <g transform="translate(34.275 112.279219) scale(0.1 -0.1)">
       <use xlink:href="#DejaVuSans-32"/>
       <use xlink:href="#DejaVuSans-30" x="63.623047"/>
      </g>
     </g>
    </g>
    <g id="ytick_6">
     <g id="line2d_21">
      <path d="M 54 71.52 
L 388.8 71.52 
" clip-path="url(#p5624e4b6fc)" style="fill: none; stroke: #b0b0b0; stroke-width: 0.8; stroke-linecap: square"/>
     </g>
     <g id="line2d_22">
      <g>
       <use xlink:href="#ma35a2b6f9a" x="54" y="71.52" style="stroke: #000000; stroke-width: 0.8"/>
      </g>
     </g>
     <g id="text_12">
      <!-- 30 -->
      <g transform="translate(34.275 75.319219) scale(0.1 -0.1)">
       <defs>
        <path id="DejaVuSans-33" d="M 2597 2516 
Q 3050 2419 3304 2112 
Q 3559 1806 3559 1356 
Q 3559 666 3084 287 
Q 2609 -91 1734 -91 
Q 1441 -91 1130 -33 
Q 819 25 488 141 
L 488 750 
Q 750 597 1062 519 
Q 1375 441 1716 441 
Q 2309 441 2620 675 
Q 2931 909 2931 1356 
Q 2931 1769 2642 2001 
Q 2353 2234 1838 2234 
L 1294 2234 
L 1294 2753 
L 1863 2753 
Q 2328 2753 2575 2939 
Q 2822 3125 2822 3475 
Q 2822 3834 2567 4026 
Q 2313 4219 1838 4219 
Q 1578 4219 1281 4162 
Q 984 4106 628 3988 
L 628 4550 
Q 988 4650 1302 4700 
Q 1616 4750 1894 4750 
Q 2613 4750 3031 4423 
Q 3450 4097 3450 3541 
Q 3450 3153 3228 2886 
Q 3006 2619 2597 2516 
z
" transform="scale(0.015625)"/>
       </defs>
       <use xlink:href="#DejaVuSans-33"/>
       <use xlink:href="#DejaVuSans-30" x="63.623047"/>
      </g>
     </g>
    </g>
    <g id="ytick_7">
     <g id="line2d_23">
      <path d="M 54 34.56 
L 388.8 34.56 
" clip-path="url(#p5624e4b6fc)" style="fill: none; stroke: #b0b0b0; stroke-width: 0.8; stroke-linecap: square"/>
     </g>
     <g id="line2d_24">
      <g>
       <use xlink:href="#ma35a2b6f9a" x="54" y="34.56" style="stroke: #000000; stroke-width: 0.8"/>
      </g>
     </g>
     <g id="text_13">
      <!-- 40 -->
      <g transform="translate(34.275 38.359219) scale(0.1 -0.1)">
       <use xlink:href="#DejaVuSans-34"/>
       <use xlink:href="#DejaVuSans-30" x="63.623047"/>
      </g>
     </g>
    </g>
    <g id="text_14">
     <!-- ASD [$\mathrm{SPL}\;/\;\sqrt{\mathrm{Hz}}$] -->
     <g transform="translate(19.815625 185.39) rotate(-90) scale(0.1 -0.1)">
      <defs>
       <path id="DejaVuSans-41" d="M 2188 4044 
L 1331 1722 
L 3047 1722 
L 2188 4044 
z
M 1831 4666 
L 2547 4666 
L 4325 0 
L 3669 0 
L 3244 1197 
L 1141 1197 
L 716 0 
L 50 0 
L 1831 4666 
z
" transform="scale(0.015625)"/>
       <path id="DejaVuSans-53" d="M 3425 4513 
L 3425 3897 
Q 3066 4069 2747 4153 
Q 2428 4238 2131 4238 
Q 1616 4238 1336 4038 
Q 1056 3838 1056 3469 
Q 1056 3159 1242 3001 
Q 1428 2844 1947 2747 
L 2328 2669 
Q 3034 2534 3370 2195 
Q 3706 1856 3706 1288 
Q 3706 609 3251 259 
Q 2797 -91 1919 -91 
Q 1588 -91 1214 -16 
Q 841 59 441 206 
L 441 856 
Q 825 641 1194 531 
Q 1563 422 1919 422 
Q 2459 422 2753 634 
Q 3047 847 3047 1241 
Q 3047 1584 2836 1778 
Q 2625 1972 2144 2069 
L 1759 2144 
Q 1053 2284 737 2584 
Q 422 2884 422 3419 
Q 422 4038 858 4394 
Q 1294 4750 2059 4750 
Q 2388 4750 2728 4690 
Q 3069 4631 3425 4513 
z
" transform="scale(0.015625)"/>
       <path id="DejaVuSans-44" d="M 1259 4147 
L 1259 519 
L 2022 519 
Q 2988 519 3436 956 
Q 3884 1394 3884 2338 
Q 3884 3275 3436 3711 
Q 2988 4147 2022 4147 
L 1259 4147 
z
M 628 4666 
L 1925 4666 
Q 3281 4666 3915 4102 
Q 4550 3538 4550 2338 
Q 4550 1131 3912 565 
Q 3275 0 1925 0 
L 628 0 
L 628 4666 
z
" transform="scale(0.015625)"/>
       <path id="DejaVuSans-50" d="M 1259 4147 
L 1259 2394 
L 2053 2394 
Q 2494 2394 2734 2622 
Q 2975 2850 2975 3272 
Q 2975 3691 2734 3919 
Q 2494 4147 2053 4147 
L 1259 4147 
z
M 628 4666 
L 2053 4666 
Q 2838 4666 3239 4311 
Q 3641 3956 3641 3272 
Q 3641 2581 3239 2228 
Q 2838 1875 2053 1875 
L 1259 1875 
L 1259 0 
L 628 0 
L 628 4666 
z
" transform="scale(0.015625)"/>
       <path id="DejaVuSans-4c" d="M 628 4666 
L 1259 4666 
L 1259 531 
L 3531 531 
L 3531 0 
L 628 0 
L 628 4666 
z
" transform="scale(0.015625)"/>
       <path id="DejaVuSans-2f" d="M 1625 4666 
L 2156 4666 
L 531 -594 
L 0 -594 
L 1625 4666 
z
" transform="scale(0.015625)"/>
       <path id="STIXSizeOneSym-Regular-221a" d="M 6970 9933 
L 3373 -1888 
L 3104 -1888 
L 1626 2918 
Q 1555 3149 1465 3251 
Q 1376 3354 1229 3354 
Q 1011 3354 794 3181 
L 717 3309 
L 1766 4115 
L 1926 4115 
L 3379 -602 
L 3405 -602 
L 6605 9933 
L 6970 9933 
z
" transform="scale(0.015625)"/>
      </defs>
      <use xlink:href="#DejaVuSans-41" transform="translate(0 0.578125)"/>
      <use xlink:href="#DejaVuSans-53" transform="translate(68.408203 0.578125)"/>
      <use xlink:href="#DejaVuSans-44" transform="translate(131.884766 0.578125)"/>
      <use xlink:href="#DejaVuSans-20" transform="translate(208.886719 0.578125)"/>
      <use xlink:href="#DejaVuSans-5b" transform="translate(240.673828 0.578125)"/>
      <use xlink:href="#DejaVuSans-53" transform="translate(279.6875 0.578125)"/>
      <use xlink:href="#DejaVuSans-50" transform="translate(343.164062 0.578125)"/>
      <use xlink:href="#DejaVuSans-4c" transform="translate(403.466797 0.578125)"/>
      <use xlink:href="#DejaVuSans-2f" transform="translate(486.238823 0.578125)"/>
      <use xlink:href="#STIXSizeOneSym-Regular-221a" transform="translate(546.989365 17.09375) scale(0.563912)"/>
      <use xlink:href="#DejaVuSans-48" transform="translate(619.077729 0.84375)"/>
      <use xlink:href="#DejaVuSans-7a" transform="translate(694.273041 0.84375)"/>
      <use xlink:href="#DejaVuSans-5d" transform="translate(759.263276 0.578125)"/>
      <path d="M 606.577729 97.5 
L 606.577729 103.75 
L 759.263276 103.75 
L 759.263276 97.5 
L 606.577729 97.5 
z
"/>
     </g>
    </g>
   </g>
   <g id="line2d_25">
    <path d="M 54 198.456908 
L 55.307812 172.14551 
L 56.615625 162.945808 
L 57.923437 157.618975 
L 59.23125 181.716121 
L 60.539062 189.765337 
L 61.846875 199.520927 
L 63.154688 196.259411 
L 64.4625 186.148217 
L 65.770313 182.542977 
L 67.078125 177.056992 
L 68.385937 174.037257 
L 69.69375 172.797533 
L 71.001563 173.471431 
L 72.309375 176.944296 
L 73.617188 176.032922 
L 76.232812 166.579196 
L 77.540625 155.337374 
L 78.848438 145.493033 
L 80.15625 141.635955 
L 81.464062 139.289261 
L 82.771875 137.571393 
L 85.3875 136.821594 
L 86.695312 136.029115 
L 89.310937 126.778727 
L 90.61875 121.353157 
L 91.926562 112.199953 
L 93.234375 104.718216 
L 94.542187 100.298772 
L 95.85 98.252393 
L 97.157813 100.234231 
L 99.773438 115.679384 
L 101.08125 114.445787 
L 102.389062 108.772202 
L 103.696875 101.79447 
L 106.3125 85.975186 
L 107.620312 80.037153 
L 108.928125 77.780859 
L 110.235938 78.332602 
L 111.54375 79.433644 
L 112.851562 81.973389 
L 114.159375 85.798162 
L 115.467187 87.757805 
L 116.775 90.860091 
L 118.082813 96.351463 
L 119.390625 99.566972 
L 120.698437 100.957833 
L 122.00625 101.440548 
L 123.314062 101.3699 
L 124.621875 102.421681 
L 127.2375 105.022109 
L 128.545312 106.598329 
L 129.853125 108.757384 
L 131.160937 112.945652 
L 132.46875 112.291643 
L 133.776563 104.379963 
L 135.084375 101.010763 
L 136.392187 100.15233 
L 137.7 98.527805 
L 139.007812 101.883799 
L 140.315625 110.728199 
L 141.623437 115.944588 
L 144.239062 119.523699 
L 145.546875 120.522547 
L 146.854688 119.515739 
L 149.470312 106.543716 
L 150.778125 105.688244 
L 153.39375 109.322721 
L 154.701562 113.44233 
L 156.009375 116.194303 
L 157.317187 114.841478 
L 158.625 112.352531 
L 159.932813 108.785787 
L 161.240625 105.56803 
L 162.548437 103.971492 
L 163.85625 104.166294 
L 165.164062 105.400585 
L 166.471875 104.949908 
L 167.779687 102.367348 
L 169.0875 99.480119 
L 170.395312 95.992136 
L 171.703125 92.98788 
L 173.010938 91.120206 
L 174.31875 88.081857 
L 175.626562 84.678873 
L 176.934375 82.845024 
L 178.242188 81.41037 
L 179.55 80.928684 
L 180.857812 83.872179 
L 182.165625 88.89242 
L 183.473437 91.08227 
L 184.78125 90.227694 
L 187.396875 88.007309 
L 188.704688 85.268603 
L 190.0125 80.822737 
L 191.320312 77.284788 
L 192.628125 76.304992 
L 193.935937 77.760309 
L 195.24375 81.958254 
L 196.551562 89.247723 
L 197.859375 94.11849 
L 199.167187 93.267562 
L 200.475 93.001356 
L 201.782813 94.472789 
L 203.090625 95.693298 
L 204.398438 96.131157 
L 205.70625 96.186525 
L 207.014062 96.431198 
L 208.321875 98.395087 
L 209.629687 102.71589 
L 210.9375 106.436243 
L 212.245312 105.821402 
L 213.553125 102.13407 
L 216.16875 88.929872 
L 217.476562 85.404727 
L 218.784375 85.299378 
L 220.092187 87.614 
L 221.4 90.48796 
L 222.707812 91.395968 
L 224.015625 89.137079 
L 225.323437 85.768686 
L 226.63125 83.967948 
L 227.939062 83.611508 
L 229.246875 83.843614 
L 230.554688 85.352236 
L 231.8625 87.569529 
L 233.170312 89.178391 
L 234.478125 91.038337 
L 235.785937 93.232372 
L 237.09375 94.835725 
L 238.401562 95.633971 
L 239.709375 94.650208 
L 241.017187 93.373389 
L 242.325 94.217619 
L 243.632812 95.495075 
L 244.940625 95.528822 
L 246.248437 96.180576 
L 248.864062 98.092862 
L 250.171875 100.571739 
L 251.479687 101.22216 
L 252.7875 99.041529 
L 254.095312 98.200169 
L 255.403125 98.346619 
L 256.710938 97.719656 
L 258.01875 96.792186 
L 259.326563 96.033563 
L 260.634375 96.909877 
L 261.942187 98.960939 
L 263.25 99.224544 
L 264.557812 99.312241 
L 265.865625 100.476474 
L 267.173437 100.970057 
L 268.48125 102.05448 
L 269.789062 103.939086 
L 272.404688 105.701649 
L 273.7125 105.214001 
L 275.020312 102.013381 
L 276.328125 100.254263 
L 277.635937 99.735564 
L 278.94375 98.166907 
L 280.251562 97.142014 
L 281.559375 97.234519 
L 282.867188 97.113593 
L 285.482813 96.54154 
L 286.790625 96.137591 
L 288.098437 96.251075 
L 289.40625 95.906862 
L 290.714062 95.255794 
L 292.021875 95.10827 
L 294.6375 93.049672 
L 295.945312 92.8533 
L 297.253125 91.806985 
L 298.560938 89.987942 
L 299.86875 88.742163 
L 301.176562 87.959943 
L 302.484375 87.767362 
L 303.792187 87.780233 
L 305.1 86.943815 
L 306.407812 86.352124 
L 307.715625 87.093142 
L 310.33125 89.421487 
L 311.639062 90.164625 
L 312.946875 90.395379 
L 314.254687 91.411331 
L 315.5625 93.299094 
L 316.870313 93.986409 
L 318.178125 93.229017 
L 320.79375 91.117823 
L 322.101562 91.077065 
L 324.717187 92.814604 
L 327.332812 95.84663 
L 328.640625 95.950239 
L 329.948438 95.400198 
L 332.564062 92.117019 
L 333.871875 92.59657 
L 335.179688 92.74302 
L 336.4875 91.49352 
L 337.795312 91.319686 
L 339.103125 91.276666 
L 340.410937 90.783631 
L 343.026563 91.128757 
L 344.334375 91.481557 
L 345.642187 92.32608 
L 346.95 92.891699 
L 348.257812 93.308045 
L 349.565625 93.268955 
L 350.873437 91.982954 
L 352.18125 91.266093 
L 353.489062 91.700937 
L 354.796875 92.442897 
L 356.104688 94.189084 
L 357.4125 96.296366 
L 358.720312 98.148056 
L 360.028125 100.733439 
L 361.335938 101.633875 
L 362.64375 98.98098 
L 363.951562 96.048504 
L 365.259375 93.758747 
L 366.567187 92.2257 
L 367.875 92.458322 
L 370.490625 94.606071 
L 371.798437 96.198333 
L 373.10625 97.174577 
L 374.414062 97.613849 
L 375.721875 98.630563 
L 377.029687 98.519696 
L 378.3375 98.053845 
L 379.645312 98.34621 
L 380.953125 97.899388 
L 382.260938 98.491192 
L 383.56875 100.401329 
L 384.876562 100.968631 
L 386.184375 102.08055 
L 387.492188 104.081809 
L 388.8 115.77504 
L 388.8 115.77504 
" clip-path="url(#p5624e4b6fc)" style="fill: none; stroke: #1f77b4; stroke-width: 2; stroke-linecap: square"/>
   </g>
   <g id="line2d_26">
    <path d="M 54 214.248664 
L 55.307812 174.504918 
L 56.615625 163.654876 
L 57.923437 159.350645 
L 59.23125 190.67299 
L 60.539062 197.645742 
L 61.846875 201.359892 
L 63.154688 200.228042 
L 64.4625 203.803121 
L 65.770313 206.07373 
L 67.078125 205.749052 
L 68.385937 207.602028 
L 69.69375 215.090048 
L 71.001563 211.970597 
L 72.309375 208.069225 
L 73.617188 213.722763 
L 74.925 216.568618 
L 76.232812 214.695137 
L 77.540625 215.053747 
L 78.848438 217.400895 
L 80.15625 214.479458 
L 81.464062 217.227096 
L 82.771875 227.167702 
L 84.079688 215.777922 
L 85.3875 217.800594 
L 86.695312 217.695863 
L 88.003125 213.05681 
L 89.310937 216.267964 
L 90.61875 219.151442 
L 91.926562 224.537871 
L 93.234375 222.308627 
L 94.542187 220.816731 
L 95.85 222.327312 
L 97.157813 222.779553 
L 98.465625 220.133159 
L 99.773438 217.169327 
L 101.08125 221.474177 
L 102.389062 216.420795 
L 103.696875 214.784545 
L 105.004687 215.88928 
L 106.3125 215.392434 
L 107.620312 220.495531 
L 108.928125 228.768459 
L 110.235938 225.458539 
L 111.54375 221.170636 
L 112.851562 223.547888 
L 114.159375 232.262077 
L 115.467187 229.679331 
L 116.775 226.126174 
L 118.082813 222.023732 
L 119.390625 222.666073 
L 120.698437 226.955974 
L 122.00625 224.336648 
L 123.314062 224.991543 
L 124.621875 227.176715 
L 125.929688 232.697241 
L 127.2375 226.953434 
L 128.545312 229.520622 
L 129.853125 233.285379 
L 131.160937 228.225658 
L 132.46875 224.692992 
L 133.776563 230.855037 
L 135.084375 235.930426 
L 136.392187 232.48126 
L 137.7 231.393021 
L 139.007812 222.146614 
L 140.315625 224.905159 
L 141.623437 233.009706 
L 142.93125 238.923089 
L 144.239062 232.655127 
L 145.546875 233.299826 
L 146.854688 232.558656 
L 148.1625 229.183002 
L 149.470312 228.682316 
L 150.778125 234.212578 
L 152.085938 231.201913 
L 153.39375 227.712576 
L 154.701562 230.703603 
L 156.009375 228.125473 
L 157.317187 224.440521 
L 158.625 227.718089 
L 159.932813 234.33935 
L 161.240625 232.554944 
L 162.548437 230.460177 
L 163.85625 231.219022 
L 165.164062 234.662861 
L 166.471875 233.9236 
L 167.779687 233.630387 
L 169.0875 236.702297 
L 170.395312 233.847325 
L 171.703125 227.588662 
L 173.010938 233.016001 
L 174.31875 239.275875 
L 175.626562 235.615752 
L 176.934375 234.951561 
L 178.242188 237.35424 
L 179.55 232.977416 
L 180.857812 230.796759 
L 182.165625 231.140431 
L 183.473437 227.960791 
L 184.78125 226.466914 
L 186.089062 229.617561 
L 187.396875 232.365109 
L 188.704688 234.330611 
L 190.0125 235.92757 
L 191.320312 233.305723 
L 192.628125 232.838031 
L 193.935937 236.611375 
L 195.24375 239.691683 
L 196.551562 230.326816 
L 197.859375 226.113438 
L 199.167187 228.361496 
L 200.475 237.836708 
L 201.782813 245.495862 
L 203.090625 231.995507 
L 204.398438 227.815468 
L 205.70625 231.387909 
L 207.014062 231.695912 
L 208.321875 233.081695 
L 209.629687 236.774836 
L 210.9375 229.830922 
L 212.245312 231.946383 
L 213.553125 230.723215 
L 214.860938 226.990334 
L 216.16875 226.818725 
L 217.476562 227.15585 
L 218.784375 233.233696 
L 220.092187 229.574513 
L 221.4 229.497045 
L 222.707812 234.114863 
L 224.015625 229.201107 
L 225.323437 235.121015 
L 226.63125 244.195666 
L 227.939062 231.993382 
L 229.246875 231.302627 
L 230.554688 233.269062 
L 231.8625 236.533492 
L 233.170312 235.764212 
L 234.478125 239.494511 
L 235.785937 239.923327 
L 237.09375 239.812497 
L 238.401562 231.103036 
L 239.709375 230.515695 
L 241.017187 231.756984 
L 242.325 240.682058 
L 243.632812 234.305536 
L 244.940625 227.337766 
L 246.248437 225.569713 
L 247.55625 222.176026 
L 248.864062 227.269334 
L 250.171875 226.062174 
L 251.479687 227.075474 
L 252.7875 229.152559 
L 254.095312 229.610452 
L 255.403125 231.502379 
L 256.710938 227.630833 
L 258.01875 233.474792 
L 259.326563 222.910686 
L 260.634375 229.622995 
L 261.942187 226.640132 
L 263.25 222.773992 
L 265.865625 234.490911 
L 267.173437 228.93276 
L 268.48125 224.139413 
L 269.789062 223.41854 
L 271.096875 225.308408 
L 272.404688 231.685692 
L 273.7125 237.481593 
L 275.020312 229.823921 
L 276.328125 224.662663 
L 277.635937 216.577466 
L 278.94375 219.409927 
L 280.251562 224.057229 
L 281.559375 219.652474 
L 284.175 216.395544 
L 285.482813 221.452836 
L 288.098437 224.854495 
L 289.40625 220.491412 
L 290.714062 216.971243 
L 292.021875 214.132538 
L 293.329687 210.248181 
L 294.6375 217.318023 
L 295.945312 217.30506 
L 297.253125 222.296458 
L 298.560938 214.067964 
L 299.86875 209.543723 
L 301.176562 208.16839 
L 302.484375 204.800625 
L 303.792187 212.290334 
L 305.1 208.321953 
L 306.407812 207.467377 
L 307.715625 205.698024 
L 309.023438 210.15217 
L 310.33125 208.938651 
L 311.639062 204.610183 
L 312.946875 208.492451 
L 314.254687 214.51737 
L 315.5625 213.843026 
L 316.870313 206.741661 
L 318.178125 200.66554 
L 319.485937 196.063561 
L 320.79375 205.839598 
L 322.101562 205.525716 
L 323.409375 202.617017 
L 324.717187 194.247056 
L 326.025 194.829986 
L 327.332812 192.935988 
L 328.640625 197.176212 
L 329.948438 198.300502 
L 331.25625 196.819328 
L 332.564062 199.900727 
L 333.871875 201.95148 
L 335.179688 197.716093 
L 336.4875 194.926789 
L 337.795312 193.192285 
L 339.103125 198.152471 
L 340.410937 190.237845 
L 341.71875 194.172868 
L 343.026563 190.622336 
L 344.334375 189.725221 
L 345.642187 192.535189 
L 346.95 193.38601 
L 348.257812 188.181332 
L 349.565625 192.704344 
L 350.873437 189.845028 
L 352.18125 186.701184 
L 353.489062 187.137992 
L 354.796875 188.322764 
L 356.104688 195.072542 
L 357.4125 186.520528 
L 358.720312 184.897926 
L 360.028125 188.738035 
L 361.335938 182.258321 
L 362.64375 188.296818 
L 363.951562 185.753313 
L 365.259375 180.39234 
L 366.567187 180.786666 
L 367.875 177.266065 
L 369.182813 176.450389 
L 370.490625 181.292233 
L 371.798437 179.739808 
L 373.10625 185.625808 
L 374.414062 187.328392 
L 375.721875 183.782666 
L 377.029687 181.886871 
L 378.3375 184.946407 
L 379.645312 184.513829 
L 380.953125 180.845193 
L 383.56875 185.103045 
L 384.876562 183.563225 
L 386.184375 185.849155 
L 387.492188 184.077184 
L 388.8 196.129406 
L 388.8 196.129406 
" clip-path="url(#p5624e4b6fc)" style="fill: none; stroke-dasharray: 3.7,1.6; stroke-dashoffset: 0; stroke: #ff7f0e"/>
   </g>
   <g id="line2d_27">
    <path d="M 54 160.616517 
L 55.307812 156.243893 
L 56.615625 159.282851 
L 57.923437 154.198556 
L 59.23125 183.595008 
L 60.539062 194.120624 
L 61.846875 195.861562 
L 63.154688 192.205748 
L 67.078125 178.446378 
L 68.385937 174.873598 
L 69.69375 172.909641 
L 71.001563 173.51986 
L 72.309375 177.187239 
L 73.617188 175.504914 
L 74.925 170.412061 
L 76.232812 167.373891 
L 78.848438 145.191122 
L 80.15625 139.879283 
L 81.464062 137.307612 
L 82.771875 136.814274 
L 84.079688 137.041103 
L 86.695312 135.7761 
L 89.310937 126.253685 
L 90.61875 121.135638 
L 91.926562 111.870922 
L 93.234375 104.099965 
L 94.542187 99.535077 
L 95.85 97.418059 
L 97.157813 99.282233 
L 99.773438 115.049813 
L 101.08125 114.049907 
L 102.389062 108.356615 
L 103.696875 101.357981 
L 106.3125 85.33564 
L 107.620312 79.344848 
L 108.928125 76.99502 
L 110.235938 77.45891 
L 111.54375 78.398406 
L 112.851562 80.79417 
L 114.159375 84.716977 
L 115.467187 86.772645 
L 116.775 89.846168 
L 118.082813 95.279999 
L 119.390625 98.382486 
L 120.698437 99.788504 
L 122.00625 100.460208 
L 123.314062 100.547869 
L 125.929688 102.950665 
L 127.2375 104.220488 
L 128.545312 105.793502 
L 129.853125 107.652197 
L 131.160937 111.705991 
L 132.46875 111.380776 
L 133.776563 103.443959 
L 135.084375 99.899378 
L 136.392187 98.883377 
L 137.7 97.051806 
L 139.007812 100.248041 
L 140.315625 108.987131 
L 141.623437 114.369042 
L 144.239062 118.493565 
L 145.546875 119.963764 
L 146.854688 120.025911 
L 148.1625 113.938899 
L 149.470312 107.31569 
L 150.778125 106.207791 
L 153.39375 110.104598 
L 154.701562 114.504252 
L 156.009375 118.17206 
L 157.317187 117.341087 
L 158.625 114.569538 
L 159.932813 110.609939 
L 161.240625 107.239174 
L 162.548437 105.612615 
L 163.85625 105.825415 
L 165.164062 107.046632 
L 166.471875 106.380726 
L 169.0875 100.296095 
L 170.395312 96.608416 
L 171.703125 93.531521 
L 173.010938 91.703813 
L 174.31875 88.725137 
L 175.626562 85.289283 
L 176.934375 83.338501 
L 178.242188 81.706296 
L 179.55 80.989033 
L 180.857812 83.75504 
L 182.165625 88.770833 
L 183.473437 91.191033 
L 184.78125 90.448694 
L 186.089062 89.27425 
L 187.396875 88.547751 
L 188.704688 86.575041 
L 190.0125 82.150652 
L 191.320312 78.178104 
L 192.628125 76.825336 
L 193.935937 77.985902 
L 195.24375 82.081605 
L 196.551562 89.523838 
L 197.859375 94.914469 
L 199.167187 94.180886 
L 200.475 93.715625 
L 203.090625 96.33344 
L 204.398438 96.937129 
L 207.014062 97.355697 
L 208.321875 99.283644 
L 209.629687 103.808231 
L 210.9375 107.913149 
L 212.245312 107.717096 
L 213.553125 104.289838 
L 216.16875 90.142943 
L 217.476562 86.415834 
L 218.784375 86.217017 
L 220.092187 88.489671 
L 221.4 91.458456 
L 222.707812 92.39735 
L 224.015625 89.890427 
L 225.323437 86.23329 
L 226.63125 84.241669 
L 227.939062 83.697887 
L 229.246875 83.734041 
L 230.554688 85.116285 
L 231.8625 87.351485 
L 233.170312 89.051136 
L 234.478125 91.059152 
L 235.785937 93.446581 
L 237.09375 95.306583 
L 238.401562 96.414857 
L 239.709375 95.478166 
L 241.017187 93.969592 
L 242.325 94.676623 
L 243.632812 96.082424 
L 244.940625 96.297144 
L 246.248437 97.012692 
L 247.55625 98.108643 
L 248.864062 99.50521 
L 250.171875 102.513264 
L 251.479687 103.722828 
L 252.7875 101.58564 
L 254.095312 100.691669 
L 255.403125 100.934166 
L 256.710938 100.303133 
L 258.01875 99.117942 
L 259.326563 98.171375 
L 260.634375 99.040644 
L 261.942187 101.118961 
L 264.557812 101.514922 
L 265.865625 103.053141 
L 267.173437 103.906847 
L 268.48125 105.318839 
L 269.789062 107.473283 
L 271.096875 108.288718 
L 272.404688 109.363901 
L 273.7125 109.284971 
L 275.020312 106.039984 
L 276.328125 104.147495 
L 277.635937 103.392668 
L 278.94375 101.376324 
L 280.251562 100.106202 
L 281.559375 100.123988 
L 284.175 99.648867 
L 285.482813 99.60502 
L 286.790625 99.338093 
L 288.098437 99.396188 
L 289.40625 98.96807 
L 290.714062 98.053322 
L 292.021875 97.597672 
L 294.6375 95.4275 
L 295.945312 95.330577 
L 297.253125 94.331155 
L 298.560938 92.26221 
L 299.86875 90.674579 
L 301.176562 89.740262 
L 302.484375 89.695844 
L 303.792187 89.926117 
L 306.407812 88.25821 
L 307.715625 88.980703 
L 310.33125 91.535342 
L 311.639062 92.439911 
L 312.946875 92.719856 
L 314.254687 93.865255 
L 315.5625 96.162058 
L 316.870313 97.192944 
L 318.178125 96.542381 
L 319.485937 95.582321 
L 320.79375 94.314962 
L 322.101562 93.934254 
L 324.717187 96.144857 
L 326.025 97.914658 
L 327.332812 100.107974 
L 328.640625 100.615703 
L 329.948438 100.358076 
L 331.25625 99.26271 
L 332.564062 97.37484 
L 333.871875 97.375081 
L 335.179688 97.983988 
L 336.4875 97.058141 
L 337.795312 97.001294 
L 339.103125 97.193166 
L 340.410937 96.412131 
L 344.334375 96.082493 
L 345.642187 97.414861 
L 346.95 98.417796 
L 348.257812 98.551536 
L 349.565625 98.547352 
L 352.18125 95.516618 
L 354.796875 96.434186 
L 356.104688 97.399701 
L 357.4125 99.748818 
L 358.720312 101.812727 
L 360.028125 104.363916 
L 361.335938 107.46295 
L 362.64375 107.18731 
L 365.259375 102.646681 
L 366.567187 99.698093 
L 367.875 98.274383 
L 370.490625 99.645517 
L 371.798437 100.746822 
L 373.10625 102.258823 
L 374.414062 102.704947 
L 377.029687 105.88654 
L 378.3375 105.030591 
L 379.645312 105.098433 
L 380.953125 105.584067 
L 382.260938 104.833249 
L 383.56875 105.687479 
L 384.876562 106.206115 
L 386.184375 105.832209 
L 387.492188 108.895232 
L 388.8 122.87055 
L 388.8 122.87055 
" clip-path="url(#p5624e4b6fc)" style="fill: none; stroke-dasharray: 1.5,2.475; stroke-dashoffset: 0; stroke: #008000; stroke-width: 1.5"/>
   </g>
   <g id="patch_3">
    <path d="M 54 256.32 
L 54 34.56 
" style="fill: none; stroke: #000000; stroke-width: 0.8; stroke-linejoin: miter; stroke-linecap: square"/>
   </g>
   <g id="patch_4">
    <path d="M 388.8 256.32 
L 388.8 34.56 
" style="fill: none; stroke: #000000; stroke-width: 0.8; stroke-linejoin: miter; stroke-linecap: square"/>
   </g>
   <g id="patch_5">
    <path d="M 54 256.32 
L 388.8 256.32 
" style="fill: none; stroke: #000000; stroke-width: 0.8; stroke-linejoin: miter; stroke-linecap: square"/>
   </g>
   <g id="patch_6">
    <path d="M 54 34.56 
L 388.8 34.56 
" style="fill: none; stroke: #000000; stroke-width: 0.8; stroke-linejoin: miter; stroke-linecap: square"/>
   </g>
   <g id="text_15">
    <!-- Amplitude spectral density (ASD) of 0° recording @ 1m -->
    <g transform="translate(55.389375 28.56) scale(0.12 -0.12)">
     <defs>
      <path id="DejaVuSans-6d" d="M 3328 2828 
Q 3544 3216 3844 3400 
Q 4144 3584 4550 3584 
Q 5097 3584 5394 3201 
Q 5691 2819 5691 2113 
L 5691 0 
L 5113 0 
L 5113 2094 
Q 5113 2597 4934 2840 
Q 4756 3084 4391 3084 
Q 3944 3084 3684 2787 
Q 3425 2491 3425 1978 
L 3425 0 
L 2847 0 
L 2847 2094 
Q 2847 2600 2669 2842 
Q 2491 3084 2119 3084 
Q 1678 3084 1418 2786 
Q 1159 2488 1159 1978 
L 1159 0 
L 581 0 
L 581 3500 
L 1159 3500 
L 1159 2956 
Q 1356 3278 1631 3431 
Q 1906 3584 2284 3584 
Q 2666 3584 2933 3390 
Q 3200 3197 3328 2828 
z
" transform="scale(0.015625)"/>
      <path id="DejaVuSans-70" d="M 1159 525 
L 1159 -1331 
L 581 -1331 
L 581 3500 
L 1159 3500 
L 1159 2969 
Q 1341 3281 1617 3432 
Q 1894 3584 2278 3584 
Q 2916 3584 3314 3078 
Q 3713 2572 3713 1747 
Q 3713 922 3314 415 
Q 2916 -91 2278 -91 
Q 1894 -91 1617 61 
Q 1341 213 1159 525 
z
M 3116 1747 
Q 3116 2381 2855 2742 
Q 2594 3103 2138 3103 
Q 1681 3103 1420 2742 
Q 1159 2381 1159 1747 
Q 1159 1113 1420 752 
Q 1681 391 2138 391 
Q 2594 391 2855 752 
Q 3116 1113 3116 1747 
z
" transform="scale(0.015625)"/>
      <path id="DejaVuSans-6c" d="M 603 4863 
L 1178 4863 
L 1178 0 
L 603 0 
L 603 4863 
z
" transform="scale(0.015625)"/>
      <path id="DejaVuSans-69" d="M 603 3500 
L 1178 3500 
L 1178 0 
L 603 0 
L 603 3500 
z
M 603 4863 
L 1178 4863 
L 1178 4134 
L 603 4134 
L 603 4863 
z
" transform="scale(0.015625)"/>
      <path id="DejaVuSans-74" d="M 1172 4494 
L 1172 3500 
L 2356 3500 
L 2356 3053 
L 1172 3053 
L 1172 1153 
Q 1172 725 1289 603 
Q 1406 481 1766 481 
L 2356 481 
L 2356 0 
L 1766 0 
Q 1100 0 847 248 
Q 594 497 594 1153 
L 594 3053 
L 172 3053 
L 172 3500 
L 594 3500 
L 594 4494 
L 1172 4494 
z
" transform="scale(0.015625)"/>
      <path id="DejaVuSans-64" d="M 2906 2969 
L 2906 4863 
L 3481 4863 
L 3481 0 
L 2906 0 
L 2906 525 
Q 2725 213 2448 61 
Q 2172 -91 1784 -91 
Q 1150 -91 751 415 
Q 353 922 353 1747 
Q 353 2572 751 3078 
Q 1150 3584 1784 3584 
Q 2172 3584 2448 3432 
Q 2725 3281 2906 2969 
z
M 947 1747 
Q 947 1113 1208 752 
Q 1469 391 1925 391 
Q 2381 391 2643 752 
Q 2906 1113 2906 1747 
Q 2906 2381 2643 2742 
Q 2381 3103 1925 3103 
Q 1469 3103 1208 2742 
Q 947 2381 947 1747 
z
" transform="scale(0.015625)"/>
      <path id="DejaVuSans-73" d="M 2834 3397 
L 2834 2853 
Q 2591 2978 2328 3040 
Q 2066 3103 1784 3103 
Q 1356 3103 1142 2972 
Q 928 2841 928 2578 
Q 928 2378 1081 2264 
Q 1234 2150 1697 2047 
L 1894 2003 
Q 2506 1872 2764 1633 
Q 3022 1394 3022 966 
Q 3022 478 2636 193 
Q 2250 -91 1575 -91 
Q 1294 -91 989 -36 
Q 684 19 347 128 
L 347 722 
Q 666 556 975 473 
Q 1284 391 1588 391 
Q 1994 391 2212 530 
Q 2431 669 2431 922 
Q 2431 1156 2273 1281 
Q 2116 1406 1581 1522 
L 1381 1569 
Q 847 1681 609 1914 
Q 372 2147 372 2553 
Q 372 3047 722 3315 
Q 1072 3584 1716 3584 
Q 2034 3584 2315 3537 
Q 2597 3491 2834 3397 
z
" transform="scale(0.015625)"/>
      <path id="DejaVuSans-61" d="M 2194 1759 
Q 1497 1759 1228 1600 
Q 959 1441 959 1056 
Q 959 750 1161 570 
Q 1363 391 1709 391 
Q 2188 391 2477 730 
Q 2766 1069 2766 1631 
L 2766 1759 
L 2194 1759 
z
M 3341 1997 
L 3341 0 
L 2766 0 
L 2766 531 
Q 2569 213 2275 61 
Q 1981 -91 1556 -91 
Q 1019 -91 701 211 
Q 384 513 384 1019 
Q 384 1609 779 1909 
Q 1175 2209 1959 2209 
L 2766 2209 
L 2766 2266 
Q 2766 2663 2505 2880 
Q 2244 3097 1772 3097 
Q 1472 3097 1187 3025 
Q 903 2953 641 2809 
L 641 3341 
Q 956 3463 1253 3523 
Q 1550 3584 1831 3584 
Q 2591 3584 2966 3190 
Q 3341 2797 3341 1997 
z
" transform="scale(0.015625)"/>
      <path id="DejaVuSans-28" d="M 1984 4856 
Q 1566 4138 1362 3434 
Q 1159 2731 1159 2009 
Q 1159 1288 1364 580 
Q 1569 -128 1984 -844 
L 1484 -844 
Q 1016 -109 783 600 
Q 550 1309 550 2009 
Q 550 2706 781 3412 
Q 1013 4119 1484 4856 
L 1984 4856 
z
" transform="scale(0.015625)"/>
      <path id="DejaVuSans-29" d="M 513 4856 
L 1013 4856 
Q 1481 4119 1714 3412 
Q 1947 2706 1947 2009 
Q 1947 1309 1714 600 
Q 1481 -109 1013 -844 
L 513 -844 
Q 928 -128 1133 580 
Q 1338 1288 1338 2009 
Q 1338 2731 1133 3434 
Q 928 4138 513 4856 
z
" transform="scale(0.015625)"/>
      <path id="DejaVuSans-6f" d="M 1959 3097 
Q 1497 3097 1228 2736 
Q 959 2375 959 1747 
Q 959 1119 1226 758 
Q 1494 397 1959 397 
Q 2419 397 2687 759 
Q 2956 1122 2956 1747 
Q 2956 2369 2687 2733 
Q 2419 3097 1959 3097 
z
M 1959 3584 
Q 2709 3584 3137 3096 
Q 3566 2609 3566 1747 
Q 3566 888 3137 398 
Q 2709 -91 1959 -91 
Q 1206 -91 779 398 
Q 353 888 353 1747 
Q 353 2609 779 3096 
Q 1206 3584 1959 3584 
z
" transform="scale(0.015625)"/>
      <path id="DejaVuSans-66" d="M 2375 4863 
L 2375 4384 
L 1825 4384 
Q 1516 4384 1395 4259 
Q 1275 4134 1275 3809 
L 1275 3500 
L 2222 3500 
L 2222 3053 
L 1275 3053 
L 1275 0 
L 697 0 
L 697 3053 
L 147 3053 
L 147 3500 
L 697 3500 
L 697 3744 
Q 697 4328 969 4595 
Q 1241 4863 1831 4863 
L 2375 4863 
z
" transform="scale(0.015625)"/>
      <path id="DejaVuSans-b0" d="M 1600 4347 
Q 1350 4347 1178 4173 
Q 1006 4000 1006 3750 
Q 1006 3503 1178 3333 
Q 1350 3163 1600 3163 
Q 1850 3163 2022 3333 
Q 2194 3503 2194 3750 
Q 2194 3997 2020 4172 
Q 1847 4347 1600 4347 
z
M 1600 4750 
Q 1800 4750 1984 4673 
Q 2169 4597 2303 4453 
Q 2447 4313 2519 4134 
Q 2591 3956 2591 3750 
Q 2591 3338 2302 3052 
Q 2013 2766 1594 2766 
Q 1172 2766 890 3047 
Q 609 3328 609 3750 
Q 609 4169 896 4459 
Q 1184 4750 1600 4750 
z
" transform="scale(0.015625)"/>
      <path id="DejaVuSans-67" d="M 2906 1791 
Q 2906 2416 2648 2759 
Q 2391 3103 1925 3103 
Q 1463 3103 1205 2759 
Q 947 2416 947 1791 
Q 947 1169 1205 825 
Q 1463 481 1925 481 
Q 2391 481 2648 825 
Q 2906 1169 2906 1791 
z
M 3481 434 
Q 3481 -459 3084 -895 
Q 2688 -1331 1869 -1331 
Q 1566 -1331 1297 -1286 
Q 1028 -1241 775 -1147 
L 775 -588 
Q 1028 -725 1275 -790 
Q 1522 -856 1778 -856 
Q 2344 -856 2625 -561 
Q 2906 -266 2906 331 
L 2906 616 
Q 2728 306 2450 153 
Q 2172 0 1784 0 
Q 1141 0 747 490 
Q 353 981 353 1791 
Q 353 2603 747 3093 
Q 1141 3584 1784 3584 
Q 2172 3584 2450 3431 
Q 2728 3278 2906 2969 
L 2906 3500 
L 3481 3500 
L 3481 434 
z
" transform="scale(0.015625)"/>
      <path id="DejaVuSans-40" d="M 2381 1678 
Q 2381 1231 2603 976 
Q 2825 722 3213 722 
Q 3597 722 3817 978 
Q 4038 1234 4038 1678 
Q 4038 2116 3813 2373 
Q 3588 2631 3206 2631 
Q 2828 2631 2604 2375 
Q 2381 2119 2381 1678 
z
M 4084 744 
Q 3897 503 3655 389 
Q 3413 275 3091 275 
Q 2553 275 2217 664 
Q 1881 1053 1881 1678 
Q 1881 2303 2218 2693 
Q 2556 3084 3091 3084 
Q 3413 3084 3656 2967 
Q 3900 2850 4084 2613 
L 4084 3022 
L 4531 3022 
L 4531 722 
Q 4988 791 5245 1139 
Q 5503 1488 5503 2041 
Q 5503 2375 5404 2669 
Q 5306 2963 5106 3213 
Q 4781 3622 4314 3839 
Q 3847 4056 3297 4056 
Q 2913 4056 2559 3954 
Q 2206 3853 1906 3653 
Q 1416 3334 1139 2817 
Q 863 2300 863 1697 
Q 863 1200 1042 765 
Q 1222 331 1563 0 
Q 1891 -325 2322 -495 
Q 2753 -666 3244 -666 
Q 3647 -666 4036 -530 
Q 4425 -394 4750 -141 
L 5031 -488 
Q 4641 -791 4180 -952 
Q 3719 -1113 3244 -1113 
Q 2666 -1113 2153 -908 
Q 1641 -703 1241 -313 
Q 841 78 631 592 
Q 422 1106 422 1697 
Q 422 2266 634 2781 
Q 847 3297 1241 3688 
Q 1644 4084 2172 4295 
Q 2700 4506 3291 4506 
Q 3953 4506 4520 4234 
Q 5088 3963 5472 3463 
Q 5706 3156 5829 2797 
Q 5953 2438 5953 2053 
Q 5953 1231 5456 756 
Q 4959 281 4084 263 
L 4084 744 
z
" transform="scale(0.015625)"/>
     </defs>
     <use xlink:href="#DejaVuSans-41"/>
     <use xlink:href="#DejaVuSans-6d" x="68.408203"/>
     <use xlink:href="#DejaVuSans-70" x="165.820312"/>
     <use xlink:href="#DejaVuSans-6c" x="229.296875"/>
     <use xlink:href="#DejaVuSans-69" x="257.080078"/>
     <use xlink:href="#DejaVuSans-74" x="284.863281"/>
     <use xlink:href="#DejaVuSans-75" x="324.072266"/>
     <use xlink:href="#DejaVuSans-64" x="387.451172"/>
     <use xlink:href="#DejaVuSans-65" x="450.927734"/>
     <use xlink:href="#DejaVuSans-20" x="512.451172"/>
     <use xlink:href="#DejaVuSans-73" x="544.238281"/>
     <use xlink:href="#DejaVuSans-70" x="596.337891"/>
     <use xlink:href="#DejaVuSans-65" x="659.814453"/>
     <use xlink:href="#DejaVuSans-63" x="721.337891"/>
     <use xlink:href="#DejaVuSans-74" x="776.318359"/>
     <use xlink:href="#DejaVuSans-72" x="815.527344"/>
     <use xlink:href="#DejaVuSans-61" x="856.640625"/>
     <use xlink:href="#DejaVuSans-6c" x="917.919922"/>
     <use xlink:href="#DejaVuSans-20" x="945.703125"/>
     <use xlink:href="#DejaVuSans-64" x="977.490234"/>
     <use xlink:href="#DejaVuSans-65" x="1040.966797"/>
     <use xlink:href="#DejaVuSans-6e" x="1102.490234"/>
     <use xlink:href="#DejaVuSans-73" x="1165.869141"/>
     <use xlink:href="#DejaVuSans-69" x="1217.96875"/>
     <use xlink:href="#DejaVuSans-74" x="1245.751953"/>
     <use xlink:href="#DejaVuSans-79" x="1284.960938"/>
     <use xlink:href="#DejaVuSans-20" x="1344.140625"/>
     <use xlink:href="#DejaVuSans-28" x="1375.927734"/>
     <use xlink:href="#DejaVuSans-41" x="1414.941406"/>
     <use xlink:href="#DejaVuSans-53" x="1483.349609"/>
     <use xlink:href="#DejaVuSans-44" x="1546.826172"/>
     <use xlink:href="#DejaVuSans-29" x="1623.828125"/>
     <use xlink:href="#DejaVuSans-20" x="1662.841797"/>
     <use xlink:href="#DejaVuSans-6f" x="1694.628906"/>
     <use xlink:href="#DejaVuSans-66" x="1755.810547"/>
     <use xlink:href="#DejaVuSans-20" x="1791.015625"/>
     <use xlink:href="#DejaVuSans-30" x="1822.802734"/>
     <use xlink:href="#DejaVuSans-b0" x="1886.425781"/>
     <use xlink:href="#DejaVuSans-20" x="1936.425781"/>
     <use xlink:href="#DejaVuSans-72" x="1968.212891"/>
     <use xlink:href="#DejaVuSans-65" x="2007.076172"/>
     <use xlink:href="#DejaVuSans-63" x="2068.599609"/>
     <use xlink:href="#DejaVuSans-6f" x="2123.580078"/>
     <use xlink:href="#DejaVuSans-72" x="2184.761719"/>
     <use xlink:href="#DejaVuSans-64" x="2224.125"/>
     <use xlink:href="#DejaVuSans-69" x="2287.601562"/>
     <use xlink:href="#DejaVuSans-6e" x="2315.384766"/>
     <use xlink:href="#DejaVuSans-67" x="2378.763672"/>
     <use xlink:href="#DejaVuSans-20" x="2442.240234"/>
     <use xlink:href="#DejaVuSans-40" x="2474.027344"/>
     <use xlink:href="#DejaVuSans-20" x="2574.027344"/>
     <use xlink:href="#DejaVuSans-31" x="2605.814453"/>
     <use xlink:href="#DejaVuSans-6d" x="2669.4375"/>
    </g>
   </g>
   <g id="legend_1">
    <g id="patch_7">
     <path d="M 210.476562 168.957188 
L 381.8 168.957188 
Q 383.8 168.957188 383.8 166.957188 
L 383.8 123.922813 
Q 383.8 121.922813 381.8 121.922813 
L 210.476562 121.922813 
Q 208.476562 121.922813 208.476562 123.922813 
L 208.476562 166.957188 
Q 208.476562 168.957188 210.476562 168.957188 
z
" style="fill: #ffffff; opacity: 0.8; stroke: #cccccc; stroke-linejoin: miter"/>
    </g>
    <g id="line2d_28">
     <path d="M 212.476562 130.02125 
L 222.476562 130.02125 
L 232.476562 130.02125 
" style="fill: none; stroke: #1f77b4; stroke-width: 2; stroke-linecap: square"/>
    </g>
    <g id="text_16">
     <!-- First Peak @ 0° -->
     <g transform="translate(240.476562 133.52125) scale(0.1 -0.1)">
      <use xlink:href="#DejaVuSans-46"/>
      <use xlink:href="#DejaVuSans-69" x="50.269531"/>
      <use xlink:href="#DejaVuSans-72" x="78.052734"/>
      <use xlink:href="#DejaVuSans-73" x="119.166016"/>
      <use xlink:href="#DejaVuSans-74" x="171.265625"/>
      <use xlink:href="#DejaVuSans-20" x="210.474609"/>
      <use xlink:href="#DejaVuSans-50" x="242.261719"/>
      <use xlink:href="#DejaVuSans-65" x="298.939453"/>
      <use xlink:href="#DejaVuSans-61" x="360.462891"/>
      <use xlink:href="#DejaVuSans-6b" x="421.742188"/>
      <use xlink:href="#DejaVuSans-20" x="479.652344"/>
      <use xlink:href="#DejaVuSans-40" x="511.439453"/>
      <use xlink:href="#DejaVuSans-20" x="611.439453"/>
      <use xlink:href="#DejaVuSans-30" x="643.226562"/>
      <use xlink:href="#DejaVuSans-b0" x="706.849609"/>
     </g>
    </g>
    <g id="line2d_29">
     <path d="M 212.476562 144.699375 
L 222.476562 144.699375 
L 232.476562 144.699375 
" style="fill: none; stroke-dasharray: 3.7,1.6; stroke-dashoffset: 0; stroke: #ff7f0e"/>
    </g>
    <g id="text_17">
     <!-- Noise Floor -->
     <g transform="translate(240.476562 148.199375) scale(0.1 -0.1)">
      <defs>
       <path id="DejaVuSans-4e" d="M 628 4666 
L 1478 4666 
L 3547 763 
L 3547 4666 
L 4159 4666 
L 4159 0 
L 3309 0 
L 1241 3903 
L 1241 0 
L 628 0 
L 628 4666 
z
" transform="scale(0.015625)"/>
      </defs>
      <use xlink:href="#DejaVuSans-4e"/>
      <use xlink:href="#DejaVuSans-6f" x="74.804688"/>
      <use xlink:href="#DejaVuSans-69" x="135.986328"/>
      <use xlink:href="#DejaVuSans-73" x="163.769531"/>
      <use xlink:href="#DejaVuSans-65" x="215.869141"/>
      <use xlink:href="#DejaVuSans-20" x="277.392578"/>
      <use xlink:href="#DejaVuSans-46" x="309.179688"/>
      <use xlink:href="#DejaVuSans-6c" x="366.699219"/>
      <use xlink:href="#DejaVuSans-6f" x="394.482422"/>
      <use xlink:href="#DejaVuSans-6f" x="455.664062"/>
      <use xlink:href="#DejaVuSans-72" x="516.845703"/>
     </g>
    </g>
    <g id="line2d_30">
     <path d="M 212.476562 159.3775 
L 222.476562 159.3775 
L 232.476562 159.3775 
" style="fill: none; stroke-dasharray: 1.5,2.475; stroke-dashoffset: 0; stroke: #008000; stroke-width: 1.5"/>
    </g>
    <g id="text_18">
     <!-- Average ASD over 10 peaks -->
     <g transform="translate(240.476562 162.8775) scale(0.1 -0.1)">
      <defs>
       <path id="DejaVuSans-76" d="M 191 3500 
L 800 3500 
L 1894 563 
L 2988 3500 
L 3597 3500 
L 2284 0 
L 1503 0 
L 191 3500 
z
" transform="scale(0.015625)"/>
      </defs>
      <use xlink:href="#DejaVuSans-41"/>
      <use xlink:href="#DejaVuSans-76" x="62.533203"/>
      <use xlink:href="#DejaVuSans-65" x="121.712891"/>
      <use xlink:href="#DejaVuSans-72" x="183.236328"/>
      <use xlink:href="#DejaVuSans-61" x="224.349609"/>
      <use xlink:href="#DejaVuSans-67" x="285.628906"/>
      <use xlink:href="#DejaVuSans-65" x="349.105469"/>
      <use xlink:href="#DejaVuSans-20" x="410.628906"/>
      <use xlink:href="#DejaVuSans-41" x="442.416016"/>
      <use xlink:href="#DejaVuSans-53" x="510.824219"/>
      <use xlink:href="#DejaVuSans-44" x="574.300781"/>
      <use xlink:href="#DejaVuSans-20" x="651.302734"/>
      <use xlink:href="#DejaVuSans-6f" x="683.089844"/>
      <use xlink:href="#DejaVuSans-76" x="744.271484"/>
      <use xlink:href="#DejaVuSans-65" x="803.451172"/>
      <use xlink:href="#DejaVuSans-72" x="864.974609"/>
      <use xlink:href="#DejaVuSans-20" x="906.087891"/>
      <use xlink:href="#DejaVuSans-31" x="937.875"/>
      <use xlink:href="#DejaVuSans-30" x="1001.498047"/>
      <use xlink:href="#DejaVuSans-20" x="1065.121094"/>
      <use xlink:href="#DejaVuSans-70" x="1096.908203"/>
      <use xlink:href="#DejaVuSans-65" x="1160.384766"/>
      <use xlink:href="#DejaVuSans-61" x="1221.908203"/>
      <use xlink:href="#DejaVuSans-6b" x="1283.1875"/>
      <use xlink:href="#DejaVuSans-73" x="1341.097656"/>
     </g>
    </g>
   </g>
  </g>
 </g>
 <defs>
  <clipPath id="p5624e4b6fc">
   <rect x="54" y="34.56" width="334.8" height="221.76"/>
  </clipPath>
 </defs>
</svg>
