<svg width="60" xmlns="http://www.w3.org/2000/svg" height="60" id="screenshot-e1f1f0dc-f2d3-80f0-8006-5d63237c1a60" viewBox="0 0 60 60" xmlns:xlink="http://www.w3.org/1999/xlink" fill="none" version="1.1"><g id="shape-e1f1f0dc-f2d3-80f0-8006-5d63237c1a60" rx="0" ry="0"><g id="shape-e1f1f0dc-f2d3-80f0-8006-5d60d5d90b44"><g class="fills" id="fills-e1f1f0dc-f2d3-80f0-8006-5d60d5d90b44"><rect rx="10" ry="10" x="0" y="0" transform="matrix(1.000000, 0.000000, 0.000000, 1.000000, 0.000000, 0.000000)" width="60" height="60" style="fill: rgb(0, 0, 0); fill-opacity: 1;"/></g></g><g id="shape-e1f1f0dc-f2d3-80f0-8006-5d60b8b61d71" rx="0" ry="0"><g id="shape-e1f1f0dc-f2d3-80f0-8006-5d60b8b61d72"><g class="fills" id="fills-e1f1f0dc-f2d3-80f0-8006-5d60b8b61d72"><path d="M31.328,17.000C31.328,15.896,32.224,15.000,33.328,15.000L34.328,15.000C35.431,15.000,36.328,15.896,36.328,17.000L36.328,28.737L36.328,43.000C36.328,44.104,35.431,45.000,34.328,45.000L33.328,45.000C32.224,45.000,31.328,44.104,31.328,43.000L31.328,17.000Z" style="fill: rgb(255, 255, 255); fill-opacity: 1;"/></g></g><g id="shape-e1f1f0dc-f2d3-80f0-8006-5d60ea2d8a26"><g class="fills" id="fills-e1f1f0dc-f2d3-80f0-8006-5d60ea2d8a26"><rect rx="2" ry="2" x="39.751075668705454" y="12.84679235971592" transform="matrix(-0.838671, -0.544639, 0.544639, -0.838671, 61.383410, 78.047564)" width="5.000000000000028" height="34.17138445392587" style="fill: rgb(255, 255, 255); fill-opacity: 1;"/></g></g><g id="shape-e1f1f0dc-f2d3-80f0-8006-5d61688a1879"><g class="fills" id="fills-e1f1f0dc-f2d3-80f0-8006-5d61688a1879"><rect rx="2" ry="2" x="44.06013536701798" y="27.476613909735335" transform="matrix(-0.838671, 0.544639, -0.544639, -0.838671, 105.589133, 42.094175)" width="5.000000000000028" height="18.417873272955518" style="fill: rgb(255, 255, 255); fill-opacity: 1;"/></g></g><g id="shape-e1f1f0dc-f2d3-80f0-8006-5d60b8b61d73"><g class="fills" id="fills-e1f1f0dc-f2d3-80f0-8006-5d60b8b61d73"><ellipse cx="21.327641849912652" cy="30" rx="15" ry="15" transform="matrix(-1.000000, 0.000000, 0.000000, -1.000000, 42.655284, 60.000000)"/></g><g id="strokes-f0af0262-7265-803c-8006-5d68313bfc27-e1f1f0dc-f2d3-80f0-8006-5d60b8b61d73" class="strokes"><g class="inner-stroke-shape" transform="matrix(-1.000000, 0.000000, 0.000000, -1.000000, 42.655284, 60.000000)"><defs><clipPath id="inner-stroke-render-7-e1f1f0dc-f2d3-80f0-8006-5d60b8b61d73-0"><use href="#stroke-shape-render-7-e1f1f0dc-f2d3-80f0-8006-5d60b8b61d73-0"/></clipPath><ellipse cx="21.327641849912652" cy="30" rx="15" ry="15" id="stroke-shape-render-7-e1f1f0dc-f2d3-80f0-8006-5d60b8b61d73-0" style="fill: none; stroke-width: 10; stroke: rgb(255, 255, 255); stroke-opacity: 1;"/></defs><use href="#stroke-shape-render-7-e1f1f0dc-f2d3-80f0-8006-5d60b8b61d73-0" clip-path="url('#inner-stroke-render-7-e1f1f0dc-f2d3-80f0-8006-5d60b8b61d73-0')"/></g></g></g><g id="shape-e1f1f0dc-f2d3-80f0-8006-5d60b8b61d74"><g class="fills" id="fills-e1f1f0dc-f2d3-80f0-8006-5d60b8b61d74"><rect rx="0" ry="0" x="21.327641849912652" y="12.5" transform="matrix(-1.000000, 0.000000, 0.000000, -1.000000, 52.655284, 60.000000)" width="10" height="35" style="fill: rgb(0, 0, 0); fill-opacity: 1;"/></g></g><g id="shape-e1f1f0dc-f2d3-80f0-8006-5d60b8b61d75"><g class="fills" id="fills-e1f1f0dc-f2d3-80f0-8006-5d60b8b61d75"><rect rx="0" ry="0" x="21.327641849912652" y="40" transform="matrix(-1.000000, 0.000000, 0.000000, -1.000000, 47.655284, 85.000000)" width="5" height="5" style="fill: rgb(255, 255, 255); fill-opacity: 1;"/></g></g><g id="shape-e1f1f0dc-f2d3-80f0-8006-5d60b8b61d76"><g class="fills" id="fills-e1f1f0dc-f2d3-80f0-8006-5d60b8b61d76"><rect rx="0" ry="0" x="21.31764184991266" y="40" transform="matrix(-1.000000, 0.000000, 0.000000, -1.000000, 46.645284, 85.000000)" width="4.009999999999991" height="5" style="fill: rgb(255, 255, 255); fill-opacity: 1;"/></g></g><g id="shape-e1f1f0dc-f2d3-80f0-8006-5d60b8b61d77"><g class="fills" id="fills-e1f1f0dc-f2d3-80f0-8006-5d60b8b61d77"><rect rx="2" ry="2" x="23.327641849912652" y="40" transform="matrix(-1.000000, 0.000000, 0.000000, -1.000000, 51.655284, 85.000000)" width="5" height="5" style="fill: rgb(255, 255, 255); fill-opacity: 1;"/></g></g><g id="shape-e1f1f0dc-f2d3-80f0-8006-5d60b8b61d78"><g class="fills" id="fills-e1f1f0dc-f2d3-80f0-8006-5d60b8b61d78"><rect rx="2" ry="2" x="22.827641849912652" y="15" transform="matrix(-1.000000, 0.000000, 0.000000, -1.000000, 50.655284, 35.000000)" width="5" height="5" style="fill: rgb(255, 255, 255); fill-opacity: 1;"/></g></g><g id="shape-e1f1f0dc-f2d3-80f0-8006-5d60b8b61d79"><g class="fills" id="fills-e1f1f0dc-f2d3-80f0-8006-5d60b8b61d79"><rect rx="0" ry="0" x="21.30000000000001" y="15" transform="matrix(-1.000000, 0.000000, 0.000000, -1.000000, 46.610000, 35.000000)" width="4.009999999999991" height="5" style="fill: rgb(255, 255, 255); fill-opacity: 1;"/></g></g></g></g></svg>