<?xml version="1.0" encoding="utf-8" standalone="no"?>
<!DOCTYPE svg PUBLIC "-//W3C//DTD SVG 1.1//EN"
  "http://www.w3.org/Graphics/SVG/1.1/DTD/svg11.dtd">
<svg xmlns:xlink="http://www.w3.org/1999/xlink" width="345.06pt" height="143.86pt" viewBox="0 0 345.06 143.86" xmlns="http://www.w3.org/2000/svg" version="1.1">
 <metadata>
  <rdf:RDF xmlns:dc="http://purl.org/dc/elements/1.1/" xmlns:cc="http://creativecommons.org/ns#" xmlns:rdf="http://www.w3.org/1999/02/22-rdf-syntax-ns#">
   <cc:Work>
    <dc:type rdf:resource="http://purl.org/dc/dcmitype/StillImage"/>
    <dc:date>2024-12-02T15:50:52.202223</dc:date>
    <dc:format>image/svg+xml</dc:format>
    <dc:creator>
     <cc:Agent>
      <dc:title>Matplotlib v3.9.2, https://matplotlib.org/</dc:title>
     </cc:Agent>
    </dc:creator>
   </cc:Work>
  </rdf:RDF>
 </metadata>
 <defs>
  <style type="text/css">*{stroke-linejoin: round; stroke-linecap: butt}</style>
 </defs>
 <g id="figure_1">
  <g id="patch_1">
   <path d="M 0 143.86 
L 345.06 143.86 
L 345.06 0 
L 0 0 
z
" style="fill: #ffffff"/>
  </g>
  <g id="axes_1">
   <g id="patch_2">
    <path d="M 160.38 28.48 
C 160.38 27.286984 159.905571 26.14161 159.061981 25.298019 
C 158.21839 24.454429 157.073016 23.98 155.88 23.98 
C 154.686984 23.98 153.54161 24.454429 152.698019 25.298019 
C 151.854429 26.14161 151.38 27.286984 151.38 28.48 
" clip-path="url(#pa936e644ea)" style="fill: none; stroke: #000000; stroke-width: 2; stroke-linejoin: miter"/>
   </g>
   <g id="patch_3">
    <path d="M 169.38 28.48 
C 169.38 27.286984 168.905571 26.14161 168.061981 25.298019 
C 167.21839 24.454429 166.073016 23.98 164.88 23.98 
C 163.686984 23.98 162.54161 24.454429 161.698019 25.298019 
C 160.854429 26.14161 160.38 27.286984 160.38 28.48 
" clip-path="url(#pa936e644ea)" style="fill: none; stroke: #000000; stroke-width: 2; stroke-linejoin: miter"/>
   </g>
   <g id="patch_4">
    <path d="M 178.38 28.48 
C 178.38 27.286984 177.905571 26.14161 177.061981 25.298019 
C 176.21839 24.454429 175.073016 23.98 173.88 23.98 
C 172.686984 23.98 171.54161 24.454429 170.698019 25.298019 
C 169.854429 26.14161 169.38 27.286984 169.38 28.48 
" clip-path="url(#pa936e644ea)" style="fill: none; stroke: #000000; stroke-width: 2; stroke-linejoin: miter"/>
   </g>
   <g id="patch_5">
    <path d="M 187.38 28.48 
C 187.38 27.286984 186.905571 26.14161 186.061981 25.298019 
C 185.21839 24.454429 184.073016 23.98 182.88 23.98 
C 181.686984 23.98 180.54161 24.454429 179.698019 25.298019 
C 178.854429 26.14161 178.38 27.286984 178.38 28.48 
" clip-path="url(#pa936e644ea)" style="fill: none; stroke: #000000; stroke-width: 2; stroke-linejoin: miter"/>
   </g>
   <g id="line2d_1">
    <path d="M 7.38 28.48 
L 61.38 28.48 
L 115.38 28.48 
" clip-path="url(#pa936e644ea)" style="fill: none; stroke: #000000; stroke-width: 2; stroke-linecap: round"/>
   </g>
   <g id="line2d_2">
    <path d="M 115.38 28.48 
L 115.38 79.24 
M 124.38 79.24 
L 106.38 79.24 
M 124.38 85.72 
L 106.38 85.72 
M 115.38 85.72 
L 115.38 136.48 
" clip-path="url(#pa936e644ea)" style="fill: none; stroke: #000000; stroke-width: 2; stroke-linecap: round"/>
   </g>
   <g id="line2d_3">
    <path d="M 115.38 28.48 
L 151.38 28.48 
M 187.38 28.48 
L 223.38 28.48 
" clip-path="url(#pa936e644ea)" style="fill: none; stroke: #000000; stroke-width: 2; stroke-linecap: round"/>
   </g>
   <g id="line2d_4">
    <path d="M 223.38 28.48 
L 274.14 28.48 
M 274.14 19.48 
L 274.14 37.48 
M 280.62 19.48 
L 280.62 37.48 
M 280.62 28.48 
L 331.38 28.48 
" clip-path="url(#pa936e644ea)" style="fill: none; stroke: #000000; stroke-width: 2; stroke-linecap: round"/>
   </g>
   <g id="line2d_5">
    <path d="M 331.38 28.48 
L 331.38 64.48 
L 340.38 67.48 
L 322.38 73.48 
L 340.38 79.48 
L 322.38 85.48 
L 340.38 91.48 
L 322.38 97.48 
L 331.38 100.48 
L 331.38 136.48 
" clip-path="url(#pa936e644ea)" style="fill: none; stroke: #000000; stroke-width: 2; stroke-linecap: round"/>
   </g>
   <g id="line2d_6">
    <path d="M 331.38 136.48 
L 277.38 136.48 
L 223.38 136.48 
" clip-path="url(#pa936e644ea)" style="fill: none; stroke: #000000; stroke-width: 2; stroke-linecap: round"/>
   </g>
   <g id="line2d_7">
    <path d="M 223.38 136.48 
L 169.38 136.48 
L 115.38 136.48 
" clip-path="url(#pa936e644ea)" style="fill: none; stroke: #000000; stroke-width: 2; stroke-linecap: round"/>
   </g>
   <g id="line2d_8">
    <path d="M 115.38 136.48 
L 61.38 136.48 
L 7.38 136.48 
" clip-path="url(#pa936e644ea)" style="fill: none; stroke: #000000; stroke-width: 2; stroke-linecap: round"/>
   </g>
   <g id="text_1">
    <!-- C2 -->
    <g transform="translate(84.096562 86.343125) scale(0.14 -0.14)">
     <defs>
      <path id="DejaVuSans-43" d="M 4122 4306 
L 4122 3641 
Q 3803 3938 3442 4084 
Q 3081 4231 2675 4231 
Q 1875 4231 1450 3742 
Q 1025 3253 1025 2328 
Q 1025 1406 1450 917 
Q 1875 428 2675 428 
Q 3081 428 3442 575 
Q 3803 722 4122 1019 
L 4122 359 
Q 3791 134 3420 21 
Q 3050 -91 2638 -91 
Q 1578 -91 968 557 
Q 359 1206 359 2328 
Q 359 3453 968 4101 
Q 1578 4750 2638 4750 
Q 3056 4750 3426 4639 
Q 3797 4528 4122 4306 
z
" transform="scale(0.015625)"/>
      <path id="DejaVuSans-32" d="M 1228 531 
L 3431 531 
L 3431 0 
L 469 0 
L 469 531 
Q 828 903 1448 1529 
Q 2069 2156 2228 2338 
Q 2531 2678 2651 2914 
Q 2772 3150 2772 3378 
Q 2772 3750 2511 3984 
Q 2250 4219 1831 4219 
Q 1534 4219 1204 4116 
Q 875 4013 500 3803 
L 500 4441 
Q 881 4594 1212 4672 
Q 1544 4750 1819 4750 
Q 2544 4750 2975 4387 
Q 3406 4025 3406 3419 
Q 3406 3131 3298 2873 
Q 3191 2616 2906 2266 
Q 2828 2175 2409 1742 
Q 1991 1309 1228 531 
z
" transform="scale(0.015625)"/>
     </defs>
     <use xlink:href="#DejaVuSans-43"/>
     <use xlink:href="#DejaVuSans-32" x="69.824219"/>
    </g>
   </g>
   <g id="text_2">
    <!-- L1 -->
    <g transform="translate(161.025937 17.46846) scale(0.14 -0.14)">
     <defs>
      <path id="DejaVuSans-4c" d="M 628 4666 
L 1259 4666 
L 1259 531 
L 3531 531 
L 3531 0 
L 628 0 
L 628 4666 
z
" transform="scale(0.015625)"/>
      <path id="DejaVuSans-31" d="M 794 531 
L 1825 531 
L 1825 4091 
L 703 3866 
L 703 4441 
L 1819 4666 
L 2450 4666 
L 2450 531 
L 3481 531 
L 3481 0 
L 794 0 
L 794 531 
z
" transform="scale(0.015625)"/>
     </defs>
     <use xlink:href="#DejaVuSans-4c"/>
     <use xlink:href="#DejaVuSans-31" x="55.712891"/>
    </g>
   </g>
   <g id="text_3">
    <!-- C1 -->
    <g transform="translate(268.038281 12.968438) scale(0.14 -0.14)">
     <use xlink:href="#DejaVuSans-43"/>
     <use xlink:href="#DejaVuSans-31" x="69.824219"/>
    </g>
   </g>
   <g id="text_4">
    <!-- R -->
    <g transform="translate(309.052188 86.343125) scale(0.14 -0.14)">
     <defs>
      <path id="DejaVuSans-52" d="M 2841 2188 
Q 3044 2119 3236 1894 
Q 3428 1669 3622 1275 
L 4263 0 
L 3584 0 
L 2988 1197 
Q 2756 1666 2539 1819 
Q 2322 1972 1947 1972 
L 1259 1972 
L 1259 0 
L 628 0 
L 628 4666 
L 2053 4666 
Q 2853 4666 3247 4331 
Q 3641 3997 3641 3322 
Q 3641 2881 3436 2590 
Q 3231 2300 2841 2188 
z
M 1259 4147 
L 1259 2491 
L 2053 2491 
Q 2509 2491 2742 2702 
Q 2975 2913 2975 3322 
Q 2975 3731 2742 3939 
Q 2509 4147 2053 4147 
L 1259 4147 
z
" transform="scale(0.015625)"/>
     </defs>
     <use xlink:href="#DejaVuSans-52"/>
    </g>
   </g>
   <g id="patch_6">
    <path d="M 7.38 31.18 
C 8.096048 31.18 8.782866 30.895511 9.289188 30.389188 
C 9.795511 29.882866 10.08 29.196048 10.08 28.48 
C 10.08 27.763952 9.795511 27.077134 9.289188 26.570812 
C 8.782866 26.064489 8.096048 25.78 7.38 25.78 
C 6.663952 25.78 5.977134 26.064489 5.470812 26.570812 
C 4.964489 27.077134 4.68 27.763952 4.68 28.48 
C 4.68 29.196048 4.964489 29.882866 5.470812 30.389188 
C 5.977134 30.895511 6.663952 31.18 7.38 31.18 
z
" clip-path="url(#pa936e644ea)" style="stroke: #000000; stroke-width: 2; stroke-linejoin: miter"/>
   </g>
   <g id="patch_7">
    <path d="M 115.38 31.18 
C 116.096048 31.18 116.782866 30.895511 117.289188 30.389188 
C 117.795511 29.882866 118.08 29.196048 118.08 28.48 
C 118.08 27.763952 117.795511 27.077134 117.289188 26.570812 
C 116.782866 26.064489 116.096048 25.78 115.38 25.78 
C 114.663952 25.78 113.977134 26.064489 113.470812 26.570812 
C 112.964489 27.077134 112.68 27.763952 112.68 28.48 
C 112.68 29.196048 112.964489 29.882866 113.470812 30.389188 
C 113.977134 30.895511 114.663952 31.18 115.38 31.18 
z
" clip-path="url(#pa936e644ea)" style="stroke: #000000; stroke-width: 2; stroke-linejoin: miter"/>
   </g>
   <g id="patch_8">
    <path d="M 115.38 139.18 
C 116.096048 139.18 116.782866 138.895511 117.289188 138.389188 
C 117.795511 137.882866 118.08 137.196048 118.08 136.48 
C 118.08 135.763952 117.795511 135.077134 117.289188 134.570812 
C 116.782866 134.064489 116.096048 133.78 115.38 133.78 
C 114.663952 133.78 113.977134 134.064489 113.470812 134.570812 
C 112.964489 135.077134 112.68 135.763952 112.68 136.48 
C 112.68 137.196048 112.964489 137.882866 113.470812 138.389188 
C 113.977134 138.895511 114.663952 139.18 115.38 139.18 
z
" clip-path="url(#pa936e644ea)" style="stroke: #000000; stroke-width: 2; stroke-linejoin: miter"/>
   </g>
   <g id="patch_9">
    <path d="M 7.38 139.18 
C 8.096048 139.18 8.782866 138.895511 9.289188 138.389188 
C 9.795511 137.882866 10.08 137.196048 10.08 136.48 
C 10.08 135.763952 9.795511 135.077134 9.289188 134.570812 
C 8.782866 134.064489 8.096048 133.78 7.38 133.78 
C 6.663952 133.78 5.977134 134.064489 5.470812 134.570812 
C 4.964489 135.077134 4.68 135.763952 4.68 136.48 
C 4.68 137.196048 4.964489 137.882866 5.470812 138.389188 
C 5.977134 138.895511 6.663952 139.18 7.38 139.18 
z
" clip-path="url(#pa936e644ea)" style="stroke: #000000; stroke-width: 2; stroke-linejoin: miter"/>
   </g>
  </g>
 </g>
 <defs>
  <clipPath id="pa936e644ea">
   <rect x="0" y="0" width="345.06" height="143.86"/>
  </clipPath>
 </defs>
</svg>
